<svg width="25" height="28" viewBox="0 0 25 28" fill="none" xmlns="http://www.w3.org/2000/svg">
<path id="Vector" d="M12.4996 0C9.71485 0 7.04414 1.10625 5.07501 3.07538C3.10587 5.04451 1.99963 7.71523 1.99963 10.5V16.7755L0.762377 18.0128C0.517711 18.2575 0.351099 18.5693 0.283606 18.9087C0.216113 19.2481 0.250768 19.5999 0.383191 19.9196C0.515613 20.2394 0.739857 20.5127 1.02757 20.705C1.31529 20.8973 1.65356 20.9999 1.99963 21H22.9996C23.3457 20.9999 23.684 20.8973 23.9717 20.705C24.2594 20.5127 24.4836 20.2394 24.6161 19.9196C24.7485 19.5999 24.7831 19.2481 24.7156 18.9087C24.6482 18.5693 24.4815 18.2575 24.2369 18.0128L22.9996 16.7755V10.5C22.9996 7.71523 21.8934 5.04451 19.9242 3.07538C17.9551 1.10625 15.2844 0 12.4996 0ZM12.4996 28C11.1072 28 9.77188 27.4469 8.78732 26.4623C7.80275 25.4777 7.24963 24.1424 7.24963 22.75H17.7496C17.7496 24.1424 17.1965 25.4777 16.2119 26.4623C15.2274 27.4469 13.892 28 12.4996 28Z" fill="#28B7E1"/>
</svg>
