<svg xmlns="http://www.w3.org/2000/svg" fill="none" viewBox="0 0 83 85">
<g clip-path="url(#clip0_301_5875)">
<path d="M50.3742 0L48.6226 2.95116L47.101 5.48073L41.5018 14.8783L38.368 9.64083L36.0621 5.77801L34.3738 2.95116L32.6312 0H0V85H82.9927V0H50.376H50.3742ZM35.8827 82.0416V60.9871L32.95 56.2883L28.0175 48.4185L12.6094 23.7985H26.0104L41.5036 48.5501L56.9968 23.7985H70.3851L69.7312 24.8489L69.5646 25.1191L69.5229 25.175L62.221 36.8535L56.4135 46.1412L50.0572 56.2919L47.1118 60.9907V82.0452H35.8845L35.8827 82.0416ZM80.06 82.0416H62.2192V42.309L73.787 23.7967L75.6274 20.8527H55.3484L41.5018 42.9792L27.6498 20.8527H7.37798L9.20572 23.7967L20.7808 42.309V82.0416H2.93815V2.95116H30.9303L41.5036 20.6744L52.077 2.95116H80.06V82.0416Z" fill="#24B6E0"/>
<path d="M55.3522 20.8506L47.4326 33.5074L41.502 42.9771L47.4235 33.5074L55.3522 20.8506Z" fill="#24B6E0"/>
<path d="M50.3742 0L47.1028 5.47893L41.5036 14.8765L32.6312 0H0V85H83V0H50.376H50.3742ZM35.8827 82.0416V60.9871L32.9518 56.2883L28.0193 48.4185L12.6094 23.7985H26.0104L41.5036 48.5501L56.9968 23.7985H70.3852L69.733 24.8489L69.5247 25.1732L62.2228 36.8517L50.0572 56.2901L47.1118 60.9889V82.0434H35.8845L35.8827 82.0416Z" fill="#24B6E0"/>
<path d="M80.0599 2.95117V82.0416H47.1099V60.9871L50.0553 56.2883L62.2209 36.8499L69.521 25.1732L69.7293 24.8489L70.3832 23.7985H56.9949L41.5035 48.5501L26.0103 23.7985H12.6092L28.0191 48.4185L32.9517 56.2883L35.8826 60.9871V82.0416H2.93799V2.95117H30.9301L41.5035 20.6744L52.0768 2.95117H80.0599Z" fill="white"/>
<path d="M80.0618 2.94922V82.0415H62.2192V42.3071L73.787 23.8001L75.6274 20.8508H55.352L47.4324 33.5076L41.5018 42.9773L35.5693 33.5076L27.6497 20.8508H7.37615L9.20751 23.8001L20.7826 42.3071V82.0415H2.93994V2.94922H30.9284L41.5018 20.6706L52.0733 2.94922H80.0618Z" fill="#231F20"/>
<path d="M70.3833 23.7988L69.7294 24.8492L69.5211 25.1735L62.221 36.8503L50.0554 56.2887L47.11 60.9875V82.042H35.8827V60.9875L32.9518 56.2887L28.0193 48.4189L12.6094 23.7988H26.0104L41.5036 48.5504L56.995 23.7988H70.3833Z" fill="#24B6E0"/>
<g opacity="0.5">
<mask id="mask0_301_5875" style="mask-type:luminance" maskUnits="userSpaceOnUse" x="50" y="36" width="13" height="21">
<path d="M62.2208 36.8516H50.0552V56.2882H62.2208V36.8516Z" fill="white"/>
</mask>
<g mask="url(#mask0_301_5875)">
<path d="M50.0552 56.288L62.2208 36.8496L56.4115 46.1373L50.0552 56.288Z" fill="#24B6E0"/>
</g>
</g>
<g opacity="0.5">
<mask id="mask1_301_5875" style="mask-type:luminance" maskUnits="userSpaceOnUse" x="69" y="24" width="1" height="2">
<path d="M69.7313 24.8486H69.5229V25.1729H69.7313V24.8486Z" fill="white"/>
</mask>
<g mask="url(#mask1_301_5875)">
<path d="M69.7288 24.8486L69.5622 25.1171L69.5205 25.1729L69.7288 24.8486Z" fill="#24B6E0"/>
</g>
</g>
<path d="M75.642 20.8545L62.221 42.3576L50.0554 61.8501V82.0416H47.1101V60.9871L50.0554 56.2883L62.221 36.8517L69.5211 25.1731L69.7295 24.8488L70.3834 23.7984H56.9951L41.5037 48.55L26.0104 23.7984H12.6094L28.0193 48.4185L35.8828 60.9871V82.0416H32.9446L32.9374 61.8501L20.779 42.3847L7.3291 20.8545H27.6498L41.5037 42.9792L55.3485 20.8545H75.642Z" fill="white"/>
</g>
<defs>
<clipPath id="clip0_301_5875">
<rect width="83" height="85" fill="white"/>
</clipPath>
</defs>
</svg>