<svg width="24" height="24" viewBox="0 0 24 24" fill="none" xmlns="http://www.w3.org/2000/svg">
<g id="chevron-left">
<path id="Vector" d="M10.9434 11.6462L10.5898 11.9997L10.9434 12.3533L14.8915 16.3014C15.0174 16.4332 15.0869 16.6088 15.0854 16.7911C15.0838 16.9746 15.0101 17.1502 14.8804 17.28C14.7506 17.4098 14.575 17.4834 14.3915 17.485C14.2092 17.4866 14.0335 17.417 13.9018 17.2911L9.10534 12.4946C9.10532 12.4946 9.10531 12.4946 9.10529 12.4946C8.97409 12.3633 8.90039 12.1853 8.90039 11.9997C8.90039 11.8141 8.97411 11.6361 9.10534 11.5048L13.9052 6.70495C13.9053 6.70493 13.9053 6.70492 13.9053 6.7049C14.0366 6.5737 14.2145 6.5 14.4001 6.5C14.5857 6.5 14.7637 6.57368 14.8949 6.70484C15.0262 6.83611 15.0999 7.01413 15.0999 7.19974C15.0999 7.38533 15.0262 7.56333 14.895 7.69459C14.895 7.69461 14.8949 7.69463 14.8949 7.69464L10.9434 11.6462Z" fill="white" stroke="white"/>
</g>
</svg>
