<svg xmlns="http://www.w3.org/2000/svg" viewBox="4.58 5.74 7.51 4.51">
    <path fill-rule="evenodd" clip-rule="evenodd" d="M4.80357 5.97018C4.94422 5.82957 5.13495 5.75059 5.33382 5.75059C5.5327 5.75059 5.72343 5.82957 5.86407 5.97018L8.33382 8.43993L10.8036 5.97018C10.8728 5.89854 10.9555 5.84141 11.047 5.8021C11.1385 5.76279 11.2369 5.7421 11.3365 5.74124C11.4361 5.74037 11.5349 5.75935 11.627 5.79706C11.7192 5.83477 11.8029 5.89046 11.8734 5.96088C11.9438 6.0313 11.9995 6.11504 12.0372 6.20721C12.0749 6.29938 12.0939 6.39814 12.093 6.49773C12.0921 6.59731 12.0715 6.69573 12.0321 6.78723C11.9928 6.87873 11.9357 6.96149 11.8641 7.03068L8.86407 10.0307C8.72343 10.1713 8.5327 10.2503 8.33382 10.2503C8.13495 10.2503 7.94422 10.1713 7.80357 10.0307L4.80357 7.03068C4.66297 6.89003 4.58398 6.6993 4.58398 6.50043C4.58398 6.30155 4.66297 6.11082 4.80357 5.97018Z"/>
</svg>


