<svg width="24" height="24" viewBox="0 0 24 24" fill="none" xmlns="http://www.w3.org/2000/svg">
<g id="circum:medal">
<g id="Vector">
<mask id="path-1-inside-1_703_2642" fill="white">
<path d="M20.692 3.75545C20.5543 3.544 20.3661 3.37019 20.1443 3.24972C19.9226 3.12925 19.6744 3.06592 19.422 3.06545H15.012C14.7256 3.06409 14.4449 3.14547 14.2037 3.2998C13.9624 3.45414 13.7708 3.67486 13.652 3.93545L12 7.48545L10.34 3.93545C10.2212 3.67486 10.0296 3.45414 9.78836 3.2998C9.5471 3.14547 9.2664 3.06409 8.98001 3.06545H4.57201C4.31978 3.06656 4.07191 3.13125 3.85132 3.25355C3.63073 3.37584 3.44453 3.55179 3.30996 3.76511C3.17538 3.97844 3.09678 4.22225 3.0814 4.47401C3.06603 4.72576 3.11439 4.97733 3.22201 5.20545L6.95201 13.2254C6.65126 13.9236 6.49479 14.6753 6.49201 15.4354C6.49201 16.8941 7.07147 18.2931 8.10292 19.3245C9.13437 20.356 10.5333 20.9354 11.992 20.9354C13.4507 20.9354 14.8496 20.356 15.8811 19.3245C16.9125 18.2931 17.492 16.8941 17.492 15.4354C17.4941 14.678 17.3374 13.9286 17.032 13.2354L20.782 5.20545C20.8888 4.97534 20.9365 4.72223 20.9208 4.46904C20.9051 4.21585 20.8264 3.97058 20.692 3.75545ZM4.12201 4.78545C4.08687 4.70747 4.07124 4.62211 4.07647 4.53674C4.08169 4.45137 4.10762 4.36856 4.15201 4.29545C4.19677 4.22464 4.25881 4.16639 4.33228 4.12615C4.40575 4.08592 4.48824 4.06503 4.57201 4.06545H8.98201C9.07831 4.06511 9.17271 4.0922 9.25418 4.14356C9.33564 4.19492 9.40079 4.26841 9.44201 4.35545L12.052 9.93545H11.992C11.1289 9.93695 10.2783 10.1414 9.50872 10.5322C8.73919 10.9231 8.07234 11.4894 7.56201 12.1854L4.12201 4.78545ZM11.992 19.9354C11.102 19.9354 10.232 19.6715 9.49194 19.1771C8.75192 18.6826 8.17514 17.9798 7.83455 17.1575C7.49396 16.3353 7.40484 15.4305 7.57847 14.5575C7.75211 13.6846 8.18069 12.8828 8.81003 12.2535C9.43936 11.6241 10.2412 11.1955 11.1141 11.0219C11.987 10.8483 12.8918 10.9374 13.7141 11.278C14.5363 11.6186 15.2392 12.1954 15.7336 12.9354C16.2281 13.6754 16.492 14.5454 16.492 15.4354C16.492 16.0264 16.3756 16.6116 16.1495 17.1575C15.9233 17.7035 15.5919 18.1996 15.174 18.6174C14.7561 19.0353 14.26 19.3668 13.7141 19.5929C13.1681 19.8191 12.583 19.9354 11.992 19.9354ZM19.882 4.78545L16.422 12.1854C15.6433 11.1161 14.5025 10.3662 13.212 10.0754L12.552 8.65545L14.552 4.35545C14.5932 4.26841 14.6584 4.19492 14.7398 4.14356C14.8213 4.0922 14.9157 4.06511 15.012 4.06545H19.422C19.506 4.06387 19.5889 4.08426 19.6626 4.1246C19.7363 4.16494 19.7981 4.22384 19.842 4.29545C19.8899 4.36695 19.9187 4.44949 19.9257 4.53525C19.9327 4.62101 19.9176 4.70713 19.882 4.78545Z"/>
</mask>
<path d="M20.692 3.75545C20.5543 3.544 20.3661 3.37019 20.1443 3.24972C19.9226 3.12925 19.6744 3.06592 19.422 3.06545H15.012C14.7256 3.06409 14.4449 3.14547 14.2037 3.2998C13.9624 3.45414 13.7708 3.67486 13.652 3.93545L12 7.48545L10.34 3.93545C10.2212 3.67486 10.0296 3.45414 9.78836 3.2998C9.5471 3.14547 9.2664 3.06409 8.98001 3.06545H4.57201C4.31978 3.06656 4.07191 3.13125 3.85132 3.25355C3.63073 3.37584 3.44453 3.55179 3.30996 3.76511C3.17538 3.97844 3.09678 4.22225 3.0814 4.47401C3.06603 4.72576 3.11439 4.97733 3.22201 5.20545L6.95201 13.2254C6.65126 13.9236 6.49479 14.6753 6.49201 15.4354C6.49201 16.8941 7.07147 18.2931 8.10292 19.3245C9.13437 20.356 10.5333 20.9354 11.992 20.9354C13.4507 20.9354 14.8496 20.356 15.8811 19.3245C16.9125 18.2931 17.492 16.8941 17.492 15.4354C17.4941 14.678 17.3374 13.9286 17.032 13.2354L20.782 5.20545C20.8888 4.97534 20.9365 4.72223 20.9208 4.46904C20.9051 4.21585 20.8264 3.97058 20.692 3.75545ZM4.12201 4.78545C4.08687 4.70747 4.07124 4.62211 4.07647 4.53674C4.08169 4.45137 4.10762 4.36856 4.15201 4.29545C4.19677 4.22464 4.25881 4.16639 4.33228 4.12615C4.40575 4.08592 4.48824 4.06503 4.57201 4.06545H8.98201C9.07831 4.06511 9.17271 4.0922 9.25418 4.14356C9.33564 4.19492 9.40079 4.26841 9.44201 4.35545L12.052 9.93545H11.992C11.1289 9.93695 10.2783 10.1414 9.50872 10.5322C8.73919 10.9231 8.07234 11.4894 7.56201 12.1854L4.12201 4.78545ZM11.992 19.9354C11.102 19.9354 10.232 19.6715 9.49194 19.1771C8.75192 18.6826 8.17514 17.9798 7.83455 17.1575C7.49396 16.3353 7.40484 15.4305 7.57847 14.5575C7.75211 13.6846 8.18069 12.8828 8.81003 12.2535C9.43936 11.6241 10.2412 11.1955 11.1141 11.0219C11.987 10.8483 12.8918 10.9374 13.7141 11.278C14.5363 11.6186 15.2392 12.1954 15.7336 12.9354C16.2281 13.6754 16.492 14.5454 16.492 15.4354C16.492 16.0264 16.3756 16.6116 16.1495 17.1575C15.9233 17.7035 15.5919 18.1996 15.174 18.6174C14.7561 19.0353 14.26 19.3668 13.7141 19.5929C13.1681 19.8191 12.583 19.9354 11.992 19.9354ZM19.882 4.78545L16.422 12.1854C15.6433 11.1161 14.5025 10.3662 13.212 10.0754L12.552 8.65545L14.552 4.35545C14.5932 4.26841 14.6584 4.19492 14.7398 4.14356C14.8213 4.0922 14.9157 4.06511 15.012 4.06545H19.422C19.506 4.06387 19.5889 4.08426 19.6626 4.1246C19.7363 4.16494 19.7981 4.22384 19.842 4.29545C19.8899 4.36695 19.9187 4.44949 19.9257 4.53525C19.9327 4.62101 19.9176 4.70713 19.882 4.78545Z" fill="#241E20"/>
<path d="M20.692 3.75545L21.5401 3.22557L21.5351 3.21758L21.53 3.20969L20.692 3.75545ZM19.422 3.06545L19.4239 2.06545H19.422V3.06545ZM15.012 3.06545L15.0073 4.06545H15.012V3.06545ZM13.652 3.93545L14.5587 4.35737L14.5619 4.35036L13.652 3.93545ZM12 7.48545L11.0941 7.90903L12.0022 9.85094L12.9066 7.90735L12 7.48545ZM10.34 3.93545L9.43011 4.35038L9.43415 4.35903L10.34 3.93545ZM8.98001 3.06545V4.06546L8.98474 4.06544L8.98001 3.06545ZM4.57201 3.06545V2.06544L4.5676 2.06546L4.57201 3.06545ZM3.22201 5.20545L4.12875 4.78373L4.12641 4.77877L3.22201 5.20545ZM6.95201 13.2254L7.87041 13.6211L8.04759 13.2098L7.85874 12.8037L6.95201 13.2254ZM6.49201 15.4354L5.49201 15.4318V15.4354H6.49201ZM11.992 20.9354V19.9354V20.9354ZM17.492 15.4354L16.492 15.4327V15.4354H17.492ZM17.032 13.2354L16.1259 12.8123L15.9339 13.2234L16.1169 13.6387L17.032 13.2354ZM20.782 5.20545L21.6881 5.62858L21.6891 5.62639L20.782 5.20545ZM4.12201 4.78545L3.21023 5.19629L3.2152 5.20699L4.12201 4.78545ZM4.15201 4.29545L3.30678 3.76105L3.30193 3.76872L3.29722 3.77647L4.15201 4.29545ZM4.57201 4.06545L4.56704 5.06545H4.57201V4.06545ZM8.98201 4.06545V5.06545L8.98553 5.06544L8.98201 4.06545ZM9.44201 4.35545L10.3478 3.93176L10.3458 3.92744L9.44201 4.35545ZM12.052 9.93545V10.9354H13.6237L12.9578 9.51176L12.052 9.93545ZM11.992 9.93545V8.93545L11.9903 8.93545L11.992 9.93545ZM7.56201 12.1854L6.6552 12.607L7.36828 14.1409L8.36847 12.7767L7.56201 12.1854ZM19.882 4.78545L20.7879 5.20902L20.7922 5.19952L19.882 4.78545ZM16.422 12.1854L15.6136 12.7741L16.6106 14.1431L17.3279 12.609L16.422 12.1854ZM13.212 10.0754L12.3052 10.4969L12.5124 10.9429L12.9922 11.051L13.212 10.0754ZM12.552 8.65545L11.6453 8.23372L11.4492 8.6553L11.6452 9.07693L12.552 8.65545ZM14.552 4.35545L13.6482 3.92743L13.6453 3.93372L14.552 4.35545ZM15.012 4.06545L15.0085 5.06545H15.012V4.06545ZM19.422 4.06545V5.06545H19.4314L19.4408 5.06527L19.422 4.06545ZM19.842 4.29545L18.9895 4.81809L18.9999 4.83509L19.011 4.85167L19.842 4.29545ZM21.53 3.20969C21.3016 2.85904 20.9894 2.57081 20.6217 2.37103L19.6669 4.1284C19.7427 4.16956 19.807 4.22895 19.8541 4.3012L21.53 3.20969ZM20.6217 2.37103C20.254 2.17125 19.8423 2.06623 19.4239 2.06545L19.4201 4.06544C19.5064 4.06561 19.5912 4.08724 19.6669 4.1284L20.6217 2.37103ZM19.422 2.06545H15.012V4.06545H19.422V2.06545ZM15.0167 2.06546C14.5377 2.06319 14.0683 2.1993 13.6648 2.45742L14.7425 4.14219C14.8215 4.09164 14.9135 4.06499 15.0073 4.06544L15.0167 2.06546ZM13.6648 2.45742C13.2613 2.71555 12.9409 3.0847 12.7421 3.52053L14.5619 4.35036C14.6008 4.26502 14.6635 4.19273 14.7425 4.14219L13.6648 2.45742ZM12.7454 3.51354L11.0934 7.06354L12.9066 7.90735L14.5586 4.35735L12.7454 3.51354ZM12.9059 7.06186L11.2459 3.51186L9.43415 4.35903L11.0941 7.90903L12.9059 7.06186ZM11.2499 3.52053C11.0511 3.0847 10.7307 2.71555 10.3272 2.45742L9.24948 4.14219C9.32849 4.19273 9.39123 4.26502 9.43015 4.35036L11.2499 3.52053ZM10.3272 2.45742C9.92373 2.1993 9.45427 2.06319 8.97527 2.06546L8.98474 4.06544C9.07854 4.06499 9.17047 4.09164 9.24948 4.14219L10.3272 2.45742ZM8.98001 2.06545H4.57201V4.06545H8.98001V2.06545ZM4.5676 2.06546C4.14723 2.06731 3.73411 2.17513 3.36646 2.37896L4.33618 4.12814C4.40971 4.08737 4.49234 4.06581 4.57641 4.06544L4.5676 2.06546ZM3.36646 2.37896C2.9988 2.58278 2.68848 2.87602 2.46419 3.23156L4.15573 4.29866C4.20059 4.22755 4.26265 4.1689 4.33618 4.12814L3.36646 2.37896ZM2.46419 3.23156C2.2399 3.58711 2.10888 3.99346 2.08326 4.41306L4.07954 4.53496C4.08467 4.45104 4.11087 4.36977 4.15573 4.29866L2.46419 3.23156ZM2.08326 4.41306C2.05764 4.83265 2.13824 5.25193 2.3176 5.63212L4.12641 4.77877C4.09054 4.70273 4.07442 4.61888 4.07954 4.53496L2.08326 4.41306ZM2.31528 5.62716L6.04528 13.6472L7.85874 12.8037L4.12874 4.78374L2.31528 5.62716ZM6.0336 12.8298C5.67951 13.6518 5.49529 14.5368 5.49201 15.4318L7.492 15.4391C7.49429 14.8138 7.62301 14.1954 7.87041 13.6211L6.0336 12.8298ZM5.49201 15.4354C5.49201 17.1594 6.17683 18.8127 7.39581 20.0316L8.81003 18.6174C7.96611 17.7735 7.49201 16.6289 7.49201 15.4354H5.49201ZM7.39581 20.0316C8.6148 21.2506 10.2681 21.9354 11.992 21.9354V19.9354C10.7985 19.9354 9.65394 19.4613 8.81003 18.6174L7.39581 20.0316ZM11.992 21.9354C13.7159 21.9354 15.3692 21.2506 16.5882 20.0316L15.174 18.6174C14.3301 19.4613 13.1855 19.9354 11.992 19.9354V21.9354ZM16.5882 20.0316C17.8072 18.8127 18.492 17.1594 18.492 15.4354H16.492C16.492 16.6289 16.0179 17.7735 15.174 18.6174L16.5882 20.0316ZM18.492 15.4382C18.4945 14.541 18.3089 13.6533 17.9471 12.8322L16.1169 13.6387C16.3659 14.2039 16.4937 14.815 16.492 15.4327L18.492 15.4382ZM17.9381 13.6586L21.6881 5.62858L19.8759 4.78231L16.1259 12.8123L17.9381 13.6586ZM21.6891 5.62639C21.8659 5.24539 21.9449 4.82631 21.9188 4.40709L19.9227 4.53099C19.9281 4.61815 19.9117 4.70529 19.8749 4.78451L21.6891 5.62639ZM21.9188 4.40709C21.8928 3.98787 21.7626 3.58177 21.5401 3.22557L19.8439 4.28533C19.8902 4.35939 19.9173 4.44383 19.9227 4.53099L21.9188 4.40709ZM5.03372 4.37463C5.06526 4.44461 5.07929 4.52123 5.0746 4.59785L3.07834 4.47563C3.06319 4.72299 3.10848 4.97032 3.21029 5.19626L5.03372 4.37463ZM5.0746 4.59785C5.06991 4.67447 5.04664 4.7488 5.0068 4.81442L3.29722 3.77647C3.1686 3.98831 3.09348 4.22827 3.07834 4.47563L5.0746 4.59785ZM4.99724 4.82985C4.95139 4.90237 4.88785 4.96204 4.81259 5.00325L3.85196 3.24906C3.62976 3.37074 3.44216 3.54692 3.30678 3.76105L4.99724 4.82985ZM4.81259 5.00325C4.73733 5.04446 4.65283 5.06586 4.56704 5.06543L4.57698 3.06546C4.32365 3.0642 4.07416 3.12738 3.85196 3.24906L4.81259 5.00325ZM4.57201 5.06545H8.98201V3.06545H4.57201V5.06545ZM8.98553 5.06544C8.89189 5.06577 8.80009 5.03942 8.72087 4.98948L9.78748 3.29763C9.54534 3.14498 9.26473 3.06445 8.97849 3.06545L8.98553 5.06544ZM8.72087 4.98948C8.64166 4.93955 8.57831 4.86808 8.53823 4.78345L10.3458 3.92744C10.2233 3.66874 10.0296 3.45029 9.78748 3.29763L8.72087 4.98948ZM8.5362 4.77913L11.1462 10.3591L12.9578 9.51176L10.3478 3.93176L8.5362 4.77913ZM12.052 8.93545H11.992V10.9354H12.052V8.93545ZM11.9903 8.93545C10.9704 8.93723 9.9652 9.17879 9.05588 9.64063L9.96156 11.4238C10.5913 11.104 11.2874 10.9367 11.9938 10.9354L11.9903 8.93545ZM9.05588 9.64063C8.14656 10.1025 7.35858 10.7717 6.75554 11.5942L8.36847 12.7767C8.7861 12.2071 9.33182 11.7437 9.96156 11.4238L9.05588 9.64063ZM8.46882 11.7639L5.02882 4.3639L3.2152 5.20699L6.6552 12.607L8.46882 11.7639ZM11.992 18.9354C11.2998 18.9354 10.6231 18.7302 10.0475 18.3456L8.93637 20.0085C9.84084 20.6129 10.9042 20.9354 11.992 20.9354V18.9354ZM10.0475 18.3456C9.47194 17.961 9.02334 17.4144 8.75843 16.7748L6.91067 17.5402C7.32695 18.5452 8.0319 19.4042 8.93637 20.0085L10.0475 18.3456ZM8.75843 16.7748C8.49352 16.1353 8.42421 15.4316 8.55926 14.7526L6.59769 14.3624C6.38547 15.4293 6.49439 16.5352 6.91067 17.5402L8.75843 16.7748ZM8.55926 14.7526C8.69431 14.0737 9.02765 13.4501 9.51713 12.9606L8.10292 11.5464C7.33373 12.3155 6.80991 13.2956 6.59769 14.3624L8.55926 14.7526ZM9.51713 12.9606C10.0066 12.4711 10.6303 12.1377 11.3092 12.0027L10.919 10.0411C9.85211 10.2533 8.87211 10.7772 8.10292 11.5464L9.51713 12.9606ZM11.3092 12.0027C11.9881 11.8677 12.6919 11.937 13.3314 12.2019L14.0968 10.3541C13.0918 9.93783 11.9859 9.82891 10.919 10.0411L11.3092 12.0027ZM13.3314 12.2019C13.9709 12.4668 14.5176 12.9154 14.9022 13.491L16.5651 12.3798C15.9607 11.4753 15.1018 10.7704 14.0968 10.3541L13.3314 12.2019ZM14.9022 13.491C15.2867 14.0665 15.492 14.7432 15.492 15.4354H17.492C17.492 14.3476 17.1694 13.2843 16.5651 12.3798L14.9022 13.491ZM15.492 15.4354C15.492 15.8951 15.4015 16.3502 15.2256 16.7748L17.0733 17.5402C17.3497 16.8729 17.492 16.1577 17.492 15.4354H15.492ZM15.2256 16.7748C15.0497 17.1995 14.7919 17.5853 14.4669 17.9103L15.8811 19.3245C16.3918 18.8138 16.7969 18.2075 17.0733 17.5402L15.2256 16.7748ZM14.4669 17.9103C14.1419 18.2353 13.756 18.4931 13.3314 18.669L14.0968 20.5168C14.7641 20.2404 15.3704 19.8353 15.8811 19.3245L14.4669 17.9103ZM13.3314 18.669C12.9068 18.8449 12.4516 18.9354 11.992 18.9354V20.9354C12.7143 20.9354 13.4295 20.7932 14.0968 20.5168L13.3314 18.669ZM18.9761 4.36189L15.5161 11.7619L17.3279 12.609L20.7879 5.209L18.9761 4.36189ZM17.2304 11.5968C16.3089 10.3314 14.9589 9.444 13.4318 9.0999L12.9922 11.051C14.0461 11.2885 14.9777 11.9008 15.6136 12.7741L17.2304 11.5968ZM14.1188 9.65396L13.4588 8.23396L11.6452 9.07693L12.3052 10.4969L14.1188 9.65396ZM13.4587 9.07718L15.4587 4.77718L13.6453 3.93372L11.6453 8.23372L13.4587 9.07718ZM15.4558 4.78345C15.4157 4.86808 15.3524 4.93955 15.2731 4.98948L14.2065 3.29763C13.9644 3.45029 13.7707 3.66874 13.6482 3.92744L15.4558 4.78345ZM15.2731 4.98948C15.1939 5.03942 15.1021 5.06577 15.0085 5.06544L15.0155 3.06545C14.7293 3.06445 14.4487 3.14498 14.2065 3.29763L15.2731 4.98948ZM15.012 5.06545H19.422V3.06545H15.012V5.06545ZM19.4408 5.06527C19.3506 5.06697 19.2614 5.04505 19.1823 5.0017L20.1429 3.2475C19.9164 3.12346 19.6614 3.06076 19.4032 3.06562L19.4408 5.06527ZM19.1823 5.0017C19.1031 4.95834 19.0366 4.89504 18.9895 4.81809L20.6946 3.7728C20.5596 3.55263 20.3694 3.37155 20.1429 3.2475L19.1823 5.0017ZM19.011 4.85167C18.9641 4.78159 18.9358 4.70068 18.929 4.61661L20.9223 4.45389C20.9015 4.19831 20.8157 3.95231 20.673 3.73923L19.011 4.85167ZM18.929 4.61661C18.9221 4.53255 18.9368 4.44814 18.9718 4.37137L20.7922 5.19952C20.8984 4.96612 20.9432 4.70946 20.9223 4.45389L18.929 4.61661Z" fill="#241E20" mask="url(#path-1-inside-1_703_2642)"/>
</g>
<path id="Vector_2" d="M12.0772 16.8795L13.1012 17.4175C13.13 17.4329 13.1625 17.4398 13.1951 17.4375C13.2276 17.4352 13.2588 17.4238 13.2852 17.4046C13.3116 17.3854 13.3321 17.3592 13.3443 17.329C13.3565 17.2987 13.3599 17.2657 13.3542 17.2335L13.1542 16.0935C13.1496 16.0657 13.1518 16.0371 13.1607 16.0102C13.1696 15.9834 13.1848 15.9591 13.2052 15.9395L14.0332 15.1325C14.0571 15.1096 14.074 15.0804 14.082 15.0482C14.0899 15.0161 14.0886 14.9823 14.0781 14.9509C14.0676 14.9195 14.0484 14.8917 14.0228 14.8707C13.9972 14.8498 13.9661 14.8365 13.9332 14.8325L12.8002 14.6685C12.7717 14.6639 12.7448 14.6524 12.7218 14.6349C12.6988 14.6175 12.6804 14.5947 12.6682 14.5685L12.1562 13.5315C12.1419 13.5022 12.1197 13.4774 12.092 13.4601C12.0644 13.4428 12.0324 13.4336 11.9997 13.4336C11.9671 13.4336 11.9351 13.4428 11.9074 13.4601C11.8797 13.4774 11.8575 13.5022 11.8432 13.5315L11.3312 14.5685C11.3193 14.5947 11.3012 14.6176 11.2783 14.635C11.2554 14.6525 11.2286 14.664 11.2002 14.6685L10.0552 14.8345C10.0223 14.8385 9.99128 14.8518 9.96564 14.8727C9.93999 14.8937 9.92082 14.9215 9.91035 14.9529C9.89988 14.9843 9.89853 15.0181 9.90647 15.0502C9.91442 15.0824 9.93132 15.1116 9.95522 15.1345L10.7832 15.9415C10.8034 15.9612 10.8185 15.9855 10.8272 16.0124C10.8359 16.0392 10.838 16.0677 10.8332 16.0955L10.6332 17.2355C10.6275 17.2677 10.631 17.3007 10.6432 17.331C10.6554 17.3612 10.6758 17.3874 10.7022 17.4066C10.7286 17.4258 10.7598 17.4372 10.7924 17.4395C10.8249 17.4418 10.8574 17.4349 10.8862 17.4195L11.9102 16.8815C11.9356 16.8671 11.9642 16.8593 11.9935 16.8589C12.0227 16.8586 12.0515 16.8657 12.0772 16.8795Z" fill="#241E20"/>
</g>
</svg>
