<svg width="15" height="16" viewBox="0 0 15 16" fill="none" xmlns="http://www.w3.org/2000/svg">
<path d="M13.0605 2.43948C12.7792 2.15828 12.3977 2.00031 12 2.00031C11.6023 2.00031 11.2208 2.15828 10.9395 2.43948L5.25 8.12898V10.25H7.371L13.0605 4.56048C13.3417 4.27919 13.4997 3.89773 13.4997 3.49998C13.4997 3.10224 13.3417 2.72078 13.0605 2.43948Z" fill="#28B7E1"/>
<path fill-rule="evenodd" clip-rule="evenodd" d="M1.5 5C1.5 4.60218 1.65804 4.22064 1.93934 3.93934C2.22064 3.65804 2.60218 3.5 3 3.5H6C6.19891 3.5 6.38968 3.57902 6.53033 3.71967C6.67098 3.86032 6.75 4.05109 6.75 4.25C6.75 4.44891 6.67098 4.63968 6.53033 4.78033C6.38968 4.92098 6.19891 5 6 5H3V12.5H10.5V9.5C10.5 9.30109 10.579 9.11032 10.7197 8.96967C10.8603 8.82902 11.0511 8.75 11.25 8.75C11.4489 8.75 11.6397 8.82902 11.7803 8.96967C11.921 9.11032 12 9.30109 12 9.5V12.5C12 12.8978 11.842 13.2794 11.5607 13.5607C11.2794 13.842 10.8978 14 10.5 14H3C2.60218 14 2.22064 13.842 1.93934 13.5607C1.65804 13.2794 1.5 12.8978 1.5 12.5V5Z" fill="#28B7E1"/>
</svg>
