<svg width="20" height="14" viewBox="0 0 20 14" fill="none" xmlns="http://www.w3.org/2000/svg">
<path d="M18.8724 6.5852C18.0439 2.8395 16.797 0.840279 14.9474 0.294186C14.5586 0.180142 14.1553 0.123167 13.7501 0.125045C13.2146 0.125045 12.7482 0.255514 12.2548 0.393795C11.6603 0.560592 10.9849 0.750045 10.0001 0.750045C9.01536 0.750045 8.33957 0.560982 7.74387 0.394186C7.25012 0.255514 6.78411 0.125045 6.25012 0.125045C5.83115 0.123592 5.414 0.180386 5.01067 0.293795C3.17082 0.837545 1.92473 2.83598 1.08411 6.58286C0.180199 10.6149 0.625121 13.1606 2.33176 13.7512C2.5657 13.8337 2.81184 13.8762 3.05989 13.877C4.22903 13.877 5.16653 12.9032 5.80715 12.1059C6.53098 11.2036 7.37825 10.7457 10.0001 10.7457C12.3419 10.7457 13.3111 11.0633 14.1482 12.1059C14.6743 12.7614 15.1716 13.22 15.6677 13.5086C16.3275 13.8922 16.9868 13.9774 17.6271 13.7575C18.6357 13.4133 19.2138 12.5036 19.3458 11.0528C19.4462 9.94028 19.2915 8.47895 18.8724 6.5852ZM8.12512 6.37504H6.87512V7.62504C6.87512 7.7908 6.80927 7.94978 6.69206 8.06699C6.57485 8.1842 6.41588 8.25004 6.25012 8.25004C6.08436 8.25004 5.92539 8.1842 5.80818 8.06699C5.69097 7.94978 5.62512 7.7908 5.62512 7.62504V6.37504H4.37512C4.20936 6.37504 4.05039 6.3092 3.93318 6.19199C3.81597 6.07478 3.75012 5.9158 3.75012 5.75004C3.75012 5.58428 3.81597 5.42531 3.93318 5.3081C4.05039 5.19089 4.20936 5.12504 4.37512 5.12504H5.62512V3.87505C5.62512 3.70928 5.69097 3.55031 5.80818 3.4331C5.92539 3.31589 6.08436 3.25005 6.25012 3.25005C6.41588 3.25005 6.57485 3.31589 6.69206 3.4331C6.80927 3.55031 6.87512 3.70928 6.87512 3.87505V5.12504H8.12512C8.29088 5.12504 8.44985 5.19089 8.56706 5.3081C8.68427 5.42531 8.75012 5.58428 8.75012 5.75004C8.75012 5.9158 8.68427 6.07478 8.56706 6.19199C8.44985 6.3092 8.29088 6.37504 8.12512 6.37504ZM11.4064 6.53129C11.2519 6.53129 11.1008 6.48548 10.9723 6.39963C10.8439 6.31379 10.7437 6.19177 10.6846 6.04902C10.6255 5.90626 10.61 5.74918 10.6401 5.59763C10.6703 5.44608 10.7447 5.30688 10.8539 5.19762C10.9632 5.08836 11.1024 5.01395 11.254 4.98381C11.4055 4.95366 11.5626 4.96913 11.7053 5.02826C11.8481 5.0874 11.9701 5.18753 12.056 5.31601C12.1418 5.44448 12.1876 5.59553 12.1876 5.75004C12.1876 5.95724 12.1053 6.15596 11.9588 6.30247C11.8123 6.44898 11.6136 6.53129 11.4064 6.53129ZM13.1251 8.25004C12.9705 8.25004 12.8194 8.20417 12.6909 8.11824C12.5624 8.03231 12.4622 7.91018 12.4032 7.76731C12.3441 7.62445 12.3287 7.46726 12.359 7.31566C12.3893 7.16406 12.4639 7.02486 12.5734 6.91568C12.6828 6.8065 12.8222 6.73224 12.9739 6.70232C13.1256 6.6724 13.2827 6.68815 13.4254 6.74758C13.5682 6.80701 13.69 6.90745 13.7757 7.03618C13.8613 7.16491 13.9068 7.31615 13.9064 7.47075C13.9059 7.67761 13.8233 7.87582 13.6769 8.02191C13.5304 8.168 13.332 8.25005 13.1251 8.25004ZM13.1251 4.81254C12.9706 4.81254 12.8196 4.76673 12.6911 4.68088C12.5626 4.59504 12.4625 4.47302 12.4033 4.33027C12.3442 4.18751 12.3287 4.03043 12.3589 3.87888C12.389 3.72733 12.4634 3.58813 12.5727 3.47887C12.682 3.36961 12.8212 3.2952 12.9727 3.26506C13.1243 3.23491 13.2813 3.25038 13.4241 3.30951C13.5668 3.36865 13.6889 3.46878 13.7747 3.59726C13.8606 3.72573 13.9064 3.87678 13.9064 4.0313C13.9064 4.2385 13.8241 4.43721 13.6775 4.58372C13.531 4.73024 13.3323 4.81254 13.1251 4.81254ZM14.8439 6.53129C14.6894 6.53129 14.5383 6.48548 14.4098 6.39963C14.2814 6.31379 14.1812 6.19177 14.1221 6.04902C14.063 5.90626 14.0475 5.74918 14.0776 5.59763C14.1078 5.44608 14.1822 5.30688 14.2914 5.19762C14.4007 5.08836 14.5399 5.01395 14.6915 4.98381C14.843 4.95366 15.0001 4.96913 15.1428 5.02826C15.2856 5.0874 15.4076 5.18753 15.4935 5.31601C15.5793 5.44448 15.6251 5.59553 15.6251 5.75004C15.6251 5.95724 15.5428 6.15596 15.3963 6.30247C15.2498 6.44898 15.0511 6.53129 14.8439 6.53129Z" fill="#28B7E1"/>
</svg>
