<svg width="24" height="24" viewBox="0 0 24 24" fill="none" xmlns="http://www.w3.org/2000/svg">
<g id="ion:game-controller-outline">
<path id="Vector" d="M21.9147 11.664C21.0522 7.76491 19.773 5.27772 17.7227 4.67162C17.3256 4.55579 16.9138 4.498 16.5002 4.50006C15.2397 4.50006 14.2451 5.25006 12.0002 5.25006C9.75536 5.25006 8.7588 4.50006 7.50021 4.50006C7.06931 4.49783 6.64019 4.55557 6.22521 4.67162C4.17208 5.27772 2.90364 7.76725 2.0313 11.664C1.14068 15.6441 1.30193 18.789 3.04286 19.3927C4.26161 19.8146 5.35146 18.9423 6.38364 17.6583C7.55552 16.1958 8.9988 15.7458 12.0002 15.7458C15.0016 15.7458 16.3886 16.1958 17.5624 17.6583C18.5936 18.9432 19.7238 19.8048 20.9102 19.4002C22.833 18.7435 22.8058 15.691 21.9147 11.664Z" stroke="#414141" stroke-width="1.5" stroke-miterlimit="10"/>
<path id="Vector_2" d="M13.6875 11.4375C14.2053 11.4375 14.625 11.0178 14.625 10.5C14.625 9.98223 14.2053 9.5625 13.6875 9.5625C13.1697 9.5625 12.75 9.98223 12.75 10.5C12.75 11.0178 13.1697 11.4375 13.6875 11.4375Z" fill="black"/>
<path id="Vector_3" d="M15.75 13.5C15.5645 13.5 15.3831 13.445 15.2289 13.3418C15.0747 13.2387 14.9545 13.0922 14.8836 12.9207C14.8128 12.7493 14.7943 12.5607 14.8307 12.3787C14.8671 12.1968 14.9566 12.0298 15.0879 11.8988C15.2193 11.7677 15.3865 11.6786 15.5685 11.6427C15.7506 11.6068 15.9391 11.6257 16.1104 11.697C16.2817 11.7684 16.4279 11.8889 16.5306 12.0434C16.6334 12.1978 16.688 12.3793 16.6875 12.5648C16.6869 12.8131 16.5878 13.0509 16.4121 13.2262C16.2363 13.4016 15.9982 13.5 15.75 13.5Z" fill="black"/>
<path id="Vector_4" d="M15.75 9.375C16.2678 9.375 16.6875 8.95527 16.6875 8.4375C16.6875 7.91973 16.2678 7.5 15.75 7.5C15.2322 7.5 14.8125 7.91973 14.8125 8.4375C14.8125 8.95527 15.2322 9.375 15.75 9.375Z" fill="black"/>
<path id="Vector_5" d="M17.8125 11.4375C18.3303 11.4375 18.75 11.0178 18.75 10.5C18.75 9.98223 18.3303 9.5625 17.8125 9.5625C17.2947 9.5625 16.875 9.98223 16.875 10.5C16.875 11.0178 17.2947 11.4375 17.8125 11.4375Z" fill="black"/>
<path id="Vector_6" d="M7.5 8.25V12.75M9.75 10.5H5.25" stroke="black" stroke-width="1.5" stroke-linecap="round" stroke-linejoin="round"/>
</g>
</svg>
