<svg width="18" height="19" viewBox="0 0 18 19" fill="none" xmlns="http://www.w3.org/2000/svg">
<mask id="mask0_3206_14616" style="mask-type:luminance" maskUnits="userSpaceOnUse" x="0" y="1" width="18" height="17">
<path d="M9.00001 17C9.98511 17.0013 10.9607 16.8079 11.8709 16.4309C12.781 16.0539 13.6076 15.5007 14.3033 14.8033C15.0007 14.1076 15.5539 13.281 15.9309 12.3709C16.3079 11.4607 16.5013 10.4851 16.5 9.50001C16.5013 8.51491 16.3078 7.53927 15.9308 6.62917C15.5539 5.71906 15.0007 4.89242 14.3033 4.19676C13.6076 3.49927 12.781 2.94613 11.8709 2.56914C10.9607 2.19215 9.98511 1.99873 9.00001 2.00001C8.01491 1.99875 7.03927 2.19218 6.12917 2.56917C5.21906 2.94616 4.39242 3.49928 3.69676 4.19676C2.99928 4.89242 2.44616 5.71906 2.06917 6.62917C1.69218 7.53927 1.49875 8.51491 1.50001 9.50001C1.49873 10.4851 1.69215 11.4607 2.06914 12.3709C2.44613 13.281 2.99927 14.1076 3.69676 14.8033C4.39242 15.5007 5.21906 16.0539 6.12917 16.4308C7.03927 16.8078 8.01491 17.0013 9.00001 17Z" fill="white" stroke="white" stroke-width="1.5" stroke-linejoin="round"/>
<path d="M6 9.5L8.25 11.75L12.75 7.25" stroke="black" stroke-width="1.5" stroke-linecap="round" stroke-linejoin="round"/>
</mask>
<g mask="url(#mask0_3206_14616)">
<path d="M0 0.5H18V18.5H0V0.5Z" fill="#009A22"/>
</g>
</svg>
