<svg width="51" height="50" viewBox="0 0 51 50" fill="none" xmlns="http://www.w3.org/2000/svg">
<path d="M42.1663 27.083V12.4997C42.1663 11.3946 41.7274 10.3348 40.946 9.5534C40.1645 8.77199 39.1047 8.33301 37.9997 8.33301H12.9997C11.8946 8.33301 10.8348 8.77199 10.0534 9.5534C9.27199 10.3348 8.83301 11.3946 8.83301 12.4997V27.083M42.1663 27.083V37.4997C42.1663 38.6047 41.7274 39.6645 40.946 40.446C40.1645 41.2274 39.1047 41.6663 37.9997 41.6663H12.9997C11.8946 41.6663 10.8348 41.2274 10.0534 40.446C9.27199 39.6645 8.83301 38.6047 8.83301 37.4997V27.083M42.1663 27.083H36.7788C36.2264 27.0831 35.6965 27.3027 35.3059 27.6934L30.2768 32.7226C29.8861 33.1133 29.3563 33.3329 28.8038 33.333H22.1955C21.643 33.3329 21.1132 33.1133 20.7226 32.7226L15.6934 27.6934C15.3028 27.3027 14.773 27.0831 14.2205 27.083H8.83301" stroke="#28B7E1" stroke-width="2.85714" stroke-linecap="round" stroke-linejoin="round"/>
</svg>
