<svg width="24" height="24" viewBox="0 0 24 24" fill="none" xmlns="http://www.w3.org/2000/svg">
<path d="M22.6467 11.5022C21.6525 7.0074 20.1562 4.60834 17.9367 3.95302C17.4701 3.81617 16.9862 3.7478 16.5 3.75005C15.8573 3.75005 15.2976 3.90662 14.7056 4.07255C13.9922 4.27271 13.1817 4.50005 12 4.50005C10.8183 4.50005 10.0073 4.27318 9.29247 4.07302C8.69997 3.90662 8.14076 3.75005 7.49997 3.75005C6.9972 3.74831 6.49663 3.81646 6.01263 3.95255C3.80482 4.60505 2.30951 7.00318 1.30076 11.4994C0.216068 16.3379 0.749974 19.3927 2.79794 20.1015C3.07867 20.2004 3.37404 20.2514 3.67169 20.2524C5.07466 20.2524 6.19966 19.0838 6.96841 18.1271C7.83701 17.0443 8.85372 16.4949 12 16.4949C14.8101 16.4949 15.9731 16.876 16.9776 18.1271C17.609 18.9136 18.2058 19.464 18.8011 19.8104C19.5928 20.2707 20.384 20.3729 21.1523 20.109C22.3626 19.696 23.0564 18.6043 23.2148 16.8633C23.3353 15.5283 23.1497 13.7747 22.6467 11.5022ZM9.74997 11.2501H8.24997V12.7501C8.24997 12.949 8.17096 13.1397 8.0303 13.2804C7.88965 13.421 7.69889 13.5001 7.49997 13.5001C7.30106 13.5001 7.1103 13.421 6.96964 13.2804C6.82899 13.1397 6.74997 12.949 6.74997 12.7501V11.2501H5.24997C5.05106 11.2501 4.8603 11.171 4.71964 11.0304C4.57899 10.8897 4.49997 10.699 4.49997 10.5001C4.49997 10.3011 4.57899 10.1104 4.71964 9.96972C4.8603 9.82907 5.05106 9.75005 5.24997 9.75005H6.74997V8.25005C6.74997 8.05114 6.82899 7.86038 6.96964 7.71972C7.1103 7.57907 7.30106 7.50005 7.49997 7.50005C7.69889 7.50005 7.88965 7.57907 8.0303 7.71972C8.17096 7.86038 8.24997 8.05114 8.24997 8.25005V9.75005H9.74997C9.94889 9.75005 10.1397 9.82907 10.2803 9.96972C10.421 10.1104 10.5 10.3011 10.5 10.5001C10.5 10.699 10.421 10.8897 10.2803 11.0304C10.1397 11.171 9.94889 11.2501 9.74997 11.2501ZM13.6875 11.4376C13.5021 11.4376 13.3208 11.3826 13.1666 11.2796C13.0125 11.1765 12.8923 11.0301 12.8213 10.8588C12.7504 10.6875 12.7318 10.499 12.768 10.3172C12.8042 10.1353 12.8934 9.96825 13.0246 9.83714C13.1557 9.70603 13.3227 9.61674 13.5046 9.58057C13.6864 9.54439 13.8749 9.56296 14.0462 9.63392C14.2175 9.70487 14.364 9.82504 14.467 9.97921C14.57 10.1334 14.625 10.3146 14.625 10.5001C14.625 10.7487 14.5262 10.9872 14.3504 11.163C14.1746 11.3388 13.9361 11.4376 13.6875 11.4376ZM15.75 13.5001C15.5645 13.5001 15.3831 13.445 15.2289 13.3419C15.0747 13.2388 14.9545 13.0922 14.8836 12.9208C14.8127 12.7493 14.7943 12.5607 14.8307 12.3788C14.867 12.1969 14.9565 12.0298 15.0879 11.8988C15.2192 11.7678 15.3865 11.6787 15.5685 11.6428C15.7505 11.6069 15.9391 11.6258 16.1104 11.6971C16.2816 11.7684 16.4279 11.8889 16.5306 12.0434C16.6333 12.1979 16.6879 12.3794 16.6875 12.5649C16.6869 12.8131 16.5878 13.051 16.4121 13.2263C16.2363 13.4016 15.9982 13.5001 15.75 13.5001ZM15.75 9.37505C15.5646 9.37505 15.3833 9.32007 15.2291 9.21706C15.075 9.11404 14.9548 8.96763 14.8838 8.79632C14.8129 8.62501 14.7943 8.43651 14.8305 8.25466C14.8667 8.0728 14.9559 7.90575 15.0871 7.77464C15.2182 7.64353 15.3852 7.55424 15.5671 7.51807C15.7489 7.48189 15.9374 7.50046 16.1087 7.57142C16.28 7.64237 16.4265 7.76254 16.5295 7.91671C16.6325 8.07088 16.6875 8.25213 16.6875 8.43755C16.6875 8.68619 16.5887 8.92465 16.4129 9.10047C16.2371 9.27628 15.9986 9.37505 15.75 9.37505ZM17.8125 11.4376C17.6271 11.4376 17.4458 11.3826 17.2916 11.2796C17.1375 11.1765 17.0173 11.0301 16.9463 10.8588C16.8754 10.6875 16.8568 10.499 16.893 10.3172C16.9292 10.1353 17.0184 9.96825 17.1496 9.83714C17.2807 9.70603 17.4477 9.61674 17.6296 9.58057C17.8114 9.54439 17.9999 9.56296 18.1712 9.63392C18.3425 9.70487 18.489 9.82504 18.592 9.97921C18.695 10.1334 18.75 10.3146 18.75 10.5001C18.75 10.7487 18.6512 10.9872 18.4754 11.163C18.2996 11.3388 18.0611 11.4376 17.8125 11.4376Z" fill="#28B7E1"/>
</svg>
