<svg width="25" height="24" viewBox="0 0 25 24" fill="none" xmlns="http://www.w3.org/2000/svg">
<g id="logout">
<path id="Vector" d="M4.0999 4.19961C3.94077 4.19961 3.78816 4.26282 3.67564 4.37535C3.56312 4.48787 3.4999 4.64048 3.4999 4.79961V19.1996C3.4999 19.3587 3.56312 19.5114 3.67564 19.6239M4.0999 4.19961L3.67564 19.6239M4.0999 4.19961C4.25903 4.19961 4.41164 4.26282 4.52417 4.37535L4.94843 3.95108M4.0999 4.19961L4.94843 3.95108M3.67564 19.6239C3.78816 19.7364 3.94077 19.7996 4.0999 19.7996C4.25903 19.7996 4.41165 19.7364 4.52417 19.6239C4.63669 19.5114 4.6999 19.3587 4.6999 19.1996V4.79961C4.6999 4.64048 4.63669 4.48787 4.52417 4.37535L4.94843 3.95108M3.67564 19.6239L4.94843 3.95108M17.7167 7.96804L17.7167 7.9681L17.724 7.97547L21.324 11.5754C21.324 11.5754 21.324 11.5755 21.324 11.5755C21.4365 11.688 21.4996 11.8405 21.4996 11.9996C21.4996 12.1587 21.4365 12.3112 21.324 12.4237C21.324 12.4238 21.324 12.4238 21.324 12.4238L17.7283 16.0194C17.6155 16.1268 17.4653 16.1862 17.3094 16.1848C17.1521 16.1835 17.0016 16.1204 16.8904 16.0091C16.7791 15.8979 16.716 15.7474 16.7147 15.5901C16.7133 15.4342 16.7727 15.284 16.8801 15.1711L18.4274 13.6239L19.4516 12.5996H18.0031H8.8999C8.74077 12.5996 8.58816 12.5364 8.47564 12.4239C8.36312 12.3114 8.2999 12.1587 8.2999 11.9996C8.2999 11.8405 8.36312 11.6879 8.47564 11.5753C8.58816 11.4628 8.74077 11.3996 8.8999 11.3996H18.0031H19.4516L18.4274 10.3753L16.8758 8.82375L16.8758 8.82368L16.8683 8.81644C16.811 8.76109 16.7653 8.69488 16.7339 8.62168C16.7024 8.54848 16.6859 8.46974 16.6852 8.39008C16.6845 8.31041 16.6997 8.2314 16.7298 8.15766C16.76 8.08393 16.8046 8.01693 16.8609 7.9606C16.9172 7.90426 16.9842 7.85971 17.058 7.82954C17.1317 7.79938 17.2107 7.78419 17.2904 7.78489C17.37 7.78558 17.4488 7.80213 17.522 7.83358C17.5952 7.86502 17.6614 7.91073 17.7167 7.96804Z" fill="#241E20" stroke="#241E20" stroke-width="1.2"/>
</g>
</svg>
