<svg width="16" height="16" viewBox="0 0 16 16" fill="none" xmlns="http://www.w3.org/2000/svg">
<path d="M13.4892 2.43918C13.2079 2.15797 12.8265 2 12.4287 2C12.031 2 11.6495 2.15797 11.3682 2.43918L5.67871 8.12868V10.2497H7.79971L13.4892 4.56018C13.7704 4.27889 13.9284 3.89743 13.9284 3.49968C13.9284 3.10193 13.7704 2.72047 13.4892 2.43918Z" fill="#414141"/>
<path fill-rule="evenodd" clip-rule="evenodd" d="M1.92871 5C1.92871 4.60218 2.08675 4.22064 2.36805 3.93934C2.64936 3.65804 3.03089 3.5 3.42871 3.5H6.42871C6.62762 3.5 6.81839 3.57902 6.95904 3.71967C7.09969 3.86032 7.17871 4.05109 7.17871 4.25C7.17871 4.44891 7.09969 4.63968 6.95904 4.78033C6.81839 4.92098 6.62762 5 6.42871 5H3.42871V12.5H10.9287V9.5C10.9287 9.30109 11.0077 9.11032 11.1484 8.96967C11.289 8.82902 11.4798 8.75 11.6787 8.75C11.8776 8.75 12.0684 8.82902 12.209 8.96967C12.3497 9.11032 12.4287 9.30109 12.4287 9.5V12.5C12.4287 12.8978 12.2707 13.2794 11.9894 13.5607C11.7081 13.842 11.3265 14 10.9287 14H3.42871C3.03089 14 2.64936 13.842 2.36805 13.5607C2.08675 13.2794 1.92871 12.8978 1.92871 12.5V5Z" fill="#414141"/>
</svg>
