<svg width="24" height="24" viewBox="0 0 24 24" fill="none" xmlns="http://www.w3.org/2000/svg">
<path d="M21.5156 9V8.99989C21.5157 8.95197 21.5094 8.90425 21.4968 8.85803C21.4967 8.85792 21.4967 8.85781 21.4967 8.8577L20.1525 4.15212L21.5156 9ZM21.5156 9V10.5C21.5159 11.0615 21.3816 11.615 21.1241 12.1139C20.8665 12.6129 20.4932 13.0429 20.0354 13.368L20.0156 13.382V13.4062V19.5C20.0156 19.8357 19.8823 20.1576 19.6449 20.3949C19.4076 20.6323 19.0857 20.7656 18.75 20.7656H5.25C4.91434 20.7656 4.59242 20.6323 4.35507 20.3949C4.11772 20.1576 3.98438 19.8357 3.98438 19.5V13.4062V13.382L3.96464 13.368C3.50679 13.0429 3.13348 12.6129 2.87594 12.1139C2.61841 11.615 2.48414 11.0615 2.48438 10.5V10.5M21.5156 9L2.48438 10.5M2.48438 10.5V9.00008C2.48455 8.95207 2.49121 8.90431 2.50417 8.85808C2.50418 8.85804 2.50419 8.85801 2.5042 8.85797L3.84846 4.15212C3.84846 4.1521 3.84847 4.15207 3.84848 4.15205C3.9249 3.88864 4.08441 3.65698 4.30322 3.49161C4.52202 3.32625 4.78839 3.23602 5.06264 3.23438H18.9374C19.2118 3.23582 19.4784 3.32596 19.6974 3.49134C19.9163 3.6567 20.0759 3.88843 20.1524 4.15194L2.48438 10.5ZM4.84024 4.43555L4.84023 4.43561L3.70492 8.42467L3.68792 8.48438H3.75H20.2547H20.3168L20.2998 8.42465L19.1626 4.43559L19.1626 4.43555C19.1486 4.38665 19.1191 4.34362 19.0785 4.31297C19.0379 4.28232 18.9884 4.2657 18.9376 4.26562H18.9375H5.0625V4.26562L5.06173 4.26563C5.01147 4.26646 4.96281 4.28342 4.92293 4.31402C4.88305 4.34462 4.85406 4.38722 4.84024 4.43555ZM9.5625 9.51562H9.51562V9.5625V10.5C9.51562 11.1589 9.77737 11.7908 10.2433 12.2567C10.7092 12.7226 11.3411 12.9844 12 12.9844C12.6589 12.9844 13.2908 12.7226 13.7567 12.2567C14.2226 11.7908 14.4844 11.1589 14.4844 10.5V9.5625V9.51562H14.4375H9.5625ZM3.5625 9.51562H3.51563V9.5625V10.5C3.51563 11.1589 3.77737 11.7908 4.24328 12.2567C4.70919 12.7226 5.3411 12.9844 6 12.9844C6.6589 12.9844 7.29081 12.7226 7.75672 12.2567C8.22263 11.7908 8.48438 11.1589 8.48438 10.5V9.5625V9.51562H8.4375H3.5625ZM5.07481 13.8916L5.01563 13.8755V13.9369V19.5C5.01563 19.5622 5.04032 19.6218 5.08427 19.6657C5.12823 19.7097 5.18784 19.7344 5.25 19.7344H18.75C18.8122 19.7344 18.8718 19.7097 18.9157 19.6657C18.9597 19.6218 18.9844 19.5622 18.9844 19.5V13.9369V13.8755L18.9252 13.8916C18.2022 14.0883 17.4353 14.0489 16.7364 13.7792C16.0374 13.5094 15.4429 13.0234 15.0395 12.392L15 12.3301L14.9605 12.392C14.6432 12.8896 14.2057 13.2992 13.6882 13.583C13.1708 13.8668 12.5901 14.0155 12 14.0155C11.4099 14.0155 10.8292 13.8668 10.3118 13.583C9.79434 13.2992 9.35677 12.8896 9.03953 12.392L9.00004 12.3301L8.9605 12.392C8.55715 13.0234 7.96263 13.5094 7.26364 13.7792C6.56466 14.0489 5.79777 14.0883 5.07481 13.8916ZM15.5625 9.51562H15.5156V9.5625V10.5C15.5156 11.1589 15.7774 11.7908 16.2433 12.2567C16.7092 12.7226 17.3411 12.9844 18 12.9844C18.6589 12.9844 19.2908 12.7226 19.7567 12.2567C20.2226 11.7908 20.4844 11.1589 20.4844 10.5V9.5625V9.51562H20.4375H15.5625Z" fill="#241E20" stroke="#241E20" stroke-width="0.09375"/>
</svg>
