<svg width="24" height="24" viewBox="0 0 24 24" fill="none" xmlns="http://www.w3.org/2000/svg">
<g id="fluent-mdl2:product-variant">
<path id="Vector" d="M20.75 6.83398H20.7451H20.7391L15.7478 9.32962L15.7451 9.32422V9.33398V11.8505L14.5049 12.4706V9.33398H14.5109L14.5022 9.32962L9.50218 6.82962L9.5 6.83398L9.49782 6.83835L9.49512 6.84375V9.04288L8.25488 8.42276V5.44052L15.125 2.00546L21.9951 5.44052V13.0956L20.7549 12.4755V6.83398H20.75ZM15.1228 8.25437L15.1214 8.2573L15.1272 8.25436L16.8557 7.38522L16.8535 7.38086L16.8513 7.3765L16.8495 7.37296L12.3345 4.78873L12.3364 4.7853L12.3298 4.78861L10.2693 5.82376L10.2715 5.82812L10.2737 5.83249L10.2751 5.83541L15.1228 8.25437ZM18.1987 6.72104L18.1968 6.72444L18.2034 6.72116L19.9807 5.83249L19.9785 5.82812L19.9763 5.82376L19.9749 5.82084L15.1272 3.39212L15.1287 3.38917L15.1228 3.39212L13.6677 4.12454L13.6699 4.12891L13.6721 4.13327L13.6739 4.1368L18.1987 6.72104ZM13.2451 13.1005L12.0049 13.7206V13.7188H12H11.9951H11.9891L8.24782 15.5894L8.24512 15.584V15.5938V20.0371H8.25H8.25488H8.26087L11.9951 18.1603V19.5556L7.625 21.7406L2.00488 18.9208V12.3253L7.625 9.51522L13.2451 12.3253V13.1005ZM7 20.0371L7.00219 20.0327L7.00488 20.0274V15.5938H7.01092L7.00218 15.5894L3.25218 13.7144L3.25 13.7188L3.24782 13.7231L3.24512 13.7285V18.1523H3.23913L3.24781 18.1567L6.99781 20.0415L7 20.0371ZM7.62282 14.5141L7.62138 14.517L7.62718 14.5141L11.2307 12.7173L11.2285 12.7129L11.2263 12.7085L11.2249 12.7056L7.62719 10.9019L7.62866 10.899L7.62281 10.9019L4.0193 12.7085L4.02148 12.7129L4.02367 12.7173L4.02513 12.7202L7.62282 14.5141ZM17 20.125L17.0022 20.1206L17.0049 20.1152V17.1465H17.0109L17.0022 17.1421L14.5022 15.8921L14.5 15.8965L14.4978 15.9009L14.4951 15.9062V18.875H14.4891L14.4978 18.8794L16.9978 20.1294L17 20.125ZM20.7522 18.8794L20.7549 18.8848V18.875V15.8965H20.75H20.7451H20.7391L18.2478 17.1421L18.2451 17.1367V17.1465V20.125H18.25H18.2549H18.2609L20.7522 18.8794ZM17.6228 16.0669L17.6213 16.0698L17.6272 16.0669L19.9807 14.8852L19.9785 14.8809L19.9763 14.8765L19.9749 14.8736L17.6272 13.7046L17.6286 13.7017L17.6228 13.7046L15.2693 14.8765L15.2715 14.8809L15.2737 14.8852L15.2751 14.8881L17.6228 16.0669ZM13.2549 19.6435V14.503L17.625 12.318L21.9951 14.503V19.6435L17.625 21.8285L13.2549 19.6435Z" fill="#241E20" stroke="#241E20" stroke-width="0.00976562"/>
</g>
</svg>
