<svg width="24" height="24" viewBox="0 0 24 24" fill="none" xmlns="http://www.w3.org/2000/svg">
<g id="fluent-mdl2:product">
<path id="Vector" d="M18.5742 6.75L18.5716 6.74475L18.5699 6.74128L11.2526 3.08851L11.2543 3.08504L11.2474 3.0885L8.42317 4.49475L8.42578 4.5L8.42839 4.50525L8.43015 4.50878L15.7005 8.18492L15.6987 8.18844L15.7057 8.18493L18.5768 6.75525L18.5742 6.75ZM11.2474 10.4115L11.2457 10.4149L11.2526 10.4115L14.0417 9.02869L14.0391 9.02344L14.0365 9.01819L14.0347 9.01468L6.75264 5.33852L6.75441 5.33501L6.74739 5.3385L3.92317 6.74475L3.92578 6.75L3.92839 6.75525L3.93012 6.75872L11.2474 10.4115ZM3 7.96875L2.99738 7.97399L2.99414 7.98047V17.5312H2.9869L2.99738 17.5365L10.4974 21.2865L10.5 21.2812L10.5026 21.276L10.5059 21.2695V11.7188H10.5131L10.5026 11.7135L3.00262 7.96351L3 7.96875ZM12.0059 21.2812H12.0131L19.5026 17.5365L19.5059 17.543V17.5312V7.96875H19.5H19.4941H19.4869L11.9974 11.7135L11.9941 11.707V11.7188V21.2812H12H12.0059ZM11.25 1.4128L20.9941 6.28487V18.4651L11.25 23.3255L1.50586 18.4651V6.28487L11.25 1.4128Z" fill="#241E20" stroke="#241E20" stroke-width="0.0117188"/>
</g>
</svg>
