<svg width="21" height="20" viewBox="0 0 21 20" fill="none" xmlns="http://www.w3.org/2000/svg">
<g id="search">
<path id="Vector" fill-rule="evenodd" clip-rule="evenodd" d="M8.5 3.99979C7.43913 3.99979 6.42172 4.42122 5.67157 5.17136C4.92143 5.92151 4.5 6.93892 4.5 7.99979C4.5 9.06066 4.92143 10.0781 5.67157 10.8282C6.42172 11.5784 7.43913 11.9998 8.5 11.9998C9.56087 11.9998 10.5783 11.5784 11.3284 10.8282C12.0786 10.0781 12.5 9.06066 12.5 7.99979C12.5 6.93892 12.0786 5.92151 11.3284 5.17136C10.5783 4.42122 9.56087 3.99979 8.5 3.99979ZM2.5 7.99979C2.49988 7.05549 2.72264 6.1245 3.15017 5.28253C3.5777 4.44056 4.19792 3.71139 4.9604 3.15432C5.72287 2.59724 6.60606 2.228 7.53815 2.07662C8.47023 1.92524 9.42488 1.996 10.3245 2.28314C11.224 2.57028 12.0432 3.06569 12.7152 3.72909C13.3872 4.39248 13.8931 5.20512 14.1919 6.10092C14.4906 6.99672 14.5737 7.95038 14.4343 8.88434C14.295 9.8183 13.9372 10.7062 13.39 11.4758L18.207 16.2928C18.3892 16.4814 18.49 16.734 18.4877 16.9962C18.4854 17.2584 18.3802 17.5092 18.1948 17.6946C18.0094 17.88 17.7586 17.9852 17.4964 17.9875C17.2342 17.9897 16.9816 17.8889 16.793 17.7068L11.977 12.8908C11.0794 13.5291 10.0233 13.9079 8.92468 13.9859C7.826 14.0639 6.72707 13.8379 5.7483 13.3328C4.76953 12.8276 3.94869 12.0628 3.37572 11.1221C2.80276 10.1815 2.49979 9.10122 2.5 7.99979Z" fill="#28B7E1"/>
</g>
</svg>
