<svg width="20" height="20" viewBox="0 0 20 20" fill="none" xmlns="http://www.w3.org/2000/svg">
<g id="switch-horizontal">
<path id="Vector" d="M13.9393 7.35315L14.7929 6.49959H13.5858H7.99979C7.86718 6.49959 7.74 6.44691 7.64623 6.35315C7.55246 6.25938 7.49979 6.1322 7.49979 5.99959C7.49979 5.86699 7.55246 5.73981 7.64623 5.64604C7.74 5.55227 7.86718 5.49959 7.99979 5.49959H13.5858H14.7929L13.9393 4.64604L12.6463 3.35304L12.6464 3.35299L12.6401 3.34695C12.5924 3.30082 12.5543 3.24565 12.5281 3.18465C12.5019 3.12365 12.4881 3.05804 12.4875 2.99165C12.4869 2.92526 12.4996 2.85942 12.5247 2.79797C12.5499 2.73652 12.587 2.6807 12.6339 2.63375C12.6809 2.5868 12.7367 2.54968 12.7982 2.52454C12.8596 2.4994 12.9255 2.48675 12.9918 2.48732C13.0582 2.4879 13.1238 2.50169 13.1848 2.5279C13.2458 2.5541 13.301 2.59219 13.3471 2.63995L13.3471 2.64L13.3532 2.64615L16.3532 5.64609C16.3532 5.64611 16.3532 5.64613 16.3532 5.64615C16.4469 5.7399 16.4996 5.86703 16.4996 5.99959C16.4996 6.13215 16.4469 6.25928 16.3532 6.35304C16.3532 6.35306 16.3532 6.35307 16.3532 6.35309L13.3568 9.34944C13.2628 9.43895 13.1376 9.48841 13.0077 9.48729C12.8766 9.48615 12.7512 9.43356 12.6585 9.34086C12.5658 9.24815 12.5132 9.12275 12.5121 8.99165C12.511 8.86175 12.5604 8.73656 12.6499 8.64255L13.9393 7.35315ZM6.06023 12.646L5.20668 13.4996H6.41379H11.9998C12.1324 13.4996 12.2596 13.5523 12.3533 13.646C12.4471 13.7398 12.4998 13.867 12.4998 13.9996C12.4998 14.1322 12.4471 14.2594 12.3533 14.3531C12.2596 14.4469 12.1324 14.4996 11.9998 14.4996H6.41379H5.20668L6.06023 15.3531L7.34963 16.6425C7.43914 16.7366 7.48861 16.8618 7.48748 16.9916C7.48634 17.1227 7.43376 17.2482 7.34105 17.3409C7.24835 17.4336 7.12294 17.4861 6.99184 17.4873C6.86195 17.4884 6.73676 17.4389 6.64275 17.3494L3.64639 14.3531C3.64638 14.3531 3.64636 14.3531 3.64634 14.353C3.55264 14.2593 3.5 14.1322 3.5 13.9996C3.5 13.867 3.55264 13.7399 3.64634 13.6461C3.64636 13.6461 3.64638 13.6461 3.64639 13.6461L6.64634 10.6461L6.64639 10.6462L6.65243 10.6399C6.69855 10.5922 6.75373 10.5541 6.81473 10.5279C6.87573 10.5017 6.94134 10.4879 7.00773 10.4873C7.07412 10.4867 7.13996 10.4994 7.20141 10.5245C7.26286 10.5497 7.31868 10.5868 7.36563 10.6338C7.41257 10.6807 7.4497 10.7365 7.47484 10.798C7.49998 10.8594 7.51263 10.9253 7.51206 10.9916C7.51148 11.058 7.49769 11.1236 7.47148 11.1846C7.44528 11.2457 7.40719 11.3008 7.35943 11.3469L7.35938 11.3469L7.35323 11.353L6.06023 12.646Z" fill="#232325" stroke="#241E20"/>
</g>
</svg>
