<svg width="16" height="16" viewBox="0 0 16 16" fill="none" xmlns="http://www.w3.org/2000/svg">
<g id="trash">
<path id="Vector" d="M7.08398 7.375V11.125M9.58398 7.375V11.125M3.33398 4.875H13.334M12.709 4.875L12.1671 12.4638C12.1447 12.7791 12.0035 13.0743 11.7722 13.2897C11.5408 13.5052 11.2364 13.625 10.9202 13.625H5.74773C5.43157 13.625 5.12715 13.5052 4.89579 13.2897C4.66442 13.0743 4.52331 12.7791 4.50086 12.4638L3.95898 4.875H12.709ZM10.209 4.875V3C10.209 2.83424 10.1431 2.67527 10.0259 2.55806C9.90872 2.44085 9.74974 2.375 9.58398 2.375H7.08398C6.91822 2.375 6.75925 2.44085 6.64204 2.55806C6.52483 2.67527 6.45898 2.83424 6.45898 3V4.875H10.209Z" stroke="#EF4343" stroke-width="2" stroke-linecap="round" stroke-linejoin="round"/>
</g>
</svg>
